<svg xmlns="http://www.w3.org/2000/svg" viewBox="0 0 160 180">
  <path fill="#26ace8" d="M133,91.56l-15.19-8.77c-3.74-2.16-3.74-5.69,0-7.84l14.58-8.42c3.74-2.16,6.79-7.45,6.79-11.77v-26.59c0-4.31-3.06-9.61-6.79-11.77l-23.03-13.3c-3.74-2.16-9.85-2.16-13.59,0l-23.03,13.3c-3.74,2.16-6.79,7.45-6.79,11.77v16.14c0,4.31-3.06,6.08-6.79,3.92l-13.97-8.07c-3.74-2.16-9.85-2.16-13.59,0l-23.03,13.3c-3.74,2.16-6.79,7.45-6.79,11.77v26.59c0,4.31,3.06,9.61,6.79,11.77l23.03,13.3c3.74,2.16,9.85,2.16,13.59,0l14.58-8.42c3.74-2.16,6.79-.39,6.79,3.92v17.54c0,4.31,3.06,9.61,6.79,11.77l23.03,13.3c3.74,2.16,9.85,2.16,13.59,0l23.03-13.3c3.74-2.16,6.79-7.45,6.79-11.77v-26.59c0-4.31-3.06-9.61-6.79-11.77h0ZM105.39,83.59c0,1.67-1.18,3.72-2.63,4.56l-24.04,13.88c-1.45.84-3.81.84-5.26,0l-8.92-5.15c-1.45-.84-2.63-2.89-2.63-4.56v-27.76c0-1.67,1.18-3.72,2.63-4.56l8.92-5.15c1.45-.84,3.81-.84,5.26,0l24.04,13.88c1.45.84,2.63,2.89,2.63,4.56v10.3Z"/>
</svg>
