<?xml version="1.0" encoding="UTF-8"?>
<svg width="74px" height="66px" viewBox="0 0 74 66" version="1.1" xmlns="http://www.w3.org/2000/svg" xmlns:xlink="http://www.w3.org/1999/xlink">
    <title>James</title>
    <g id="Page-1" stroke="none" stroke-width="1" fill="none" fill-rule="evenodd">
        <g id="RF-Logo-Light&amp;Dark-Blue(s)"></g>
        <g id="2x" transform="translate(0.000000, -1.000000)" fill="#1A1A1A" fill-rule="nonzero">
            <path d="M5.63671875,66.4882812 C7.55859375,66.4882812 9.83203125,65.3867188 12.4570312,63.1835938 C15.5976562,60.4882812 18.8789062,56.5390625 22.3007812,51.3359375 C22.7929687,50.5390625 23.1503906,50.0058594 23.3730469,49.7363281 C23.5957031,49.4667969 23.7773437,49.3320312 23.9179687,49.3320312 C24.1523437,49.3320312 24.8085937,49.4140625 25.8867187,49.578125 C26.4726562,49.6484375 26.9414062,49.6835938 27.2929687,49.6835938 C27.7382812,49.6835938 28.0371094,49.6074219 28.1894531,49.4550781 C28.3417969,49.3027344 28.4179687,49.0390625 28.4179687,48.6640625 C28.4179687,48.3359375 28.265625,48.0957031 27.9609375,47.9433594 C27.65625,47.7910156 27.09375,47.6679688 26.2734375,47.5742188 C25.8515625,47.5273438 25.5058594,47.4804688 25.2363281,47.4335938 C24.9667969,47.3867188 24.8320312,47.3515625 24.8320312,47.328125 C24.8320312,47.2109375 25.1601562,46.5898438 25.8164062,45.4648438 C29.2148437,39.2773438 31.96875,32.9257812 34.078125,26.4101562 C36.140625,20.0117188 37.171875,14.609375 37.171875,10.203125 C37.171875,7.71875 36.8320312,5.75 36.1523437,4.296875 C35.1210937,2.140625 33.4570312,1.0625 31.1601562,1.0625 C29.1445312,1.0625 26.7421875,1.91796875 23.953125,3.62890625 C20.0625,6.04296875 15.8085937,9.9921875 11.1914062,15.4765625 C8.07421875,19.203125 4.9453125,23.5625 1.8046875,28.5546875 C0.890625,29.9375 0.43359375,30.8632812 0.43359375,31.3320312 C0.43359375,31.6367188 0.5859375,31.859375 0.890625,32 C1.03125,32.0703125 1.16015625,32.1054688 1.27734375,32.1054688 C1.51171875,32.1054688 1.8046875,31.8886719 2.15625,31.4550781 C2.5078125,31.0214844 3.046875,30.21875 3.7734375,29.046875 C7.2421875,23.65625 10.7226562,18.96875 14.2148437,14.984375 C18.5039062,10.1796875 22.3828125,6.76953125 25.8515625,4.75390625 C27.8203125,3.62890625 29.5195312,3.06640625 30.9492187,3.06640625 C31.8867187,3.06640625 32.6953125,3.3125 33.375,3.8046875 C34.5703125,4.7890625 35.1679687,6.81640625 35.1679687,9.88671875 C35.1679687,13.7539062 34.2890625,18.6640625 32.53125,24.6171875 C30.3515625,31.9765625 27.2460937,39.1015625 23.2148437,45.9921875 L23.2148437,45.9921875 L22.4765625,47.2578125 L20.2265625,47.3632812 C16.59375,47.5507812 13.3710937,48.3828125 10.5585937,49.859375 C7.46484375,51.5 5.07421875,53.8203125 3.38671875,56.8203125 C2.40234375,58.7421875 1.91015625,60.4882812 1.91015625,62.0585938 C1.91015625,63.1367188 2.1328125,64.0625 2.578125,64.8359375 C3.2109375,65.9375 4.23046875,66.4882812 5.63671875,66.4882812 Z M5.7421875,64.4492188 C4.453125,64.4492188 3.80859375,63.6640625 3.80859375,62.09375 C3.80859375,60.828125 4.29492187,59.3222656 5.26757812,57.5761719 C6.24023437,55.8300781 7.65234375,54.2539062 9.50390625,52.8476562 C12.3632812,50.8789062 15.7617187,49.7304688 19.6992187,49.4023438 L19.6992187,49.4023438 L20.6132812,49.3320312 C20.8710937,49.3320312 21,49.390625 21,49.5078125 C21,49.71875 20.7304687,50.1757812 20.1914062,50.8789062 L20.1914062,50.8789062 L19.9101562,51.3007812 C15.7148437,57.5585938 11.8242187,61.6835938 8.23828125,63.6757812 C7.23046875,64.1914062 6.3984375,64.4492188 5.7421875,64.4492188 Z M39.5929687,46.90625 C40.3429687,46.90625 41.1808594,46.765625 42.1066406,46.484375 C43.0324219,46.203125 43.8292969,45.8691406 44.4972656,45.4824219 C45.1652344,45.0957031 45.4992187,44.6914062 45.4992187,44.2695312 L45.4992187,44.2695312 L45.4992187,44.1992188 C45.4992187,43.7304688 45.253125,43.4960938 44.7609375,43.4960938 C44.3390625,43.4960938 43.70625,43.6601562 42.8625,43.9882812 C41.503125,44.5507812 40.5539062,44.8320312 40.0148437,44.8320312 C39.6398437,44.8320312 39.4523437,44.6796875 39.4523437,44.375 C39.4523437,44.1640625 39.534375,43.8710938 39.6984375,43.4960938 C40.003125,42.8398438 40.1554687,42.2539062 40.1554687,41.7382812 C40.1554687,41.2929688 40.0617187,40.8945312 39.8742187,40.5429688 C39.3585937,39.7460938 38.5382812,39.3476562 37.4132812,39.3476562 C36.2882812,39.3476562 35.1164062,39.8046875 33.8976562,40.71875 C33.1242187,41.3046875 32.5558594,41.9082031 32.1925781,42.5292969 C31.8292969,43.1503906 31.6476562,43.7304688 31.6476562,44.2695312 C31.6476562,44.5976562 31.7179687,44.9023438 31.8585937,45.1835938 C32.1867187,45.8398438 32.8195312,46.1679688 33.7570312,46.1679688 C34.3898437,46.1679688 35.1398437,45.96875 36.0070312,45.5703125 C36.6867187,45.265625 37.05,45.1132812 37.096875,45.1132812 C37.5421875,46.3085938 38.3742187,46.90625 39.5929687,46.90625 Z M33.721875,44.1289062 L33.9328125,43.7070312 C34.2375,43.1679688 34.7179687,42.6757812 35.3742187,42.2304688 C36.1007812,41.7148438 36.8390625,41.4335938 37.5890625,41.3867188 C37.846875,41.3867188 37.9757812,41.4453125 37.9757812,41.5625 C37.9757812,41.8671875 37.284375,42.4414062 35.9015625,43.2851562 C35.5734375,43.4726562 35.2570312,43.6367188 34.9523437,43.7773438 C34.6476562,43.9179688 34.4132812,44 34.2492187,44.0234375 C34.0851562,44.046875 33.909375,44.0820312 33.721875,44.1289062 L33.721875,44.1289062 Z M44.1234375,46.9765625 C44.8734375,46.9765625 46.06875,46.2617188 47.709375,44.8320312 C49.2328125,43.5195312 50.0765625,42.8632812 50.240625,42.8632812 C50.2640625,42.8632812 50.2757812,42.875 50.2757812,42.8984375 C50.2757812,42.9921875 50.1761719,43.2207031 49.9769531,43.5839844 C49.7777344,43.9472656 49.678125,44.2695312 49.678125,44.5507812 C49.678125,45.1835938 49.9359375,45.5 50.4515625,45.5 C50.990625,45.5 51.7875,45.1484375 52.8421875,44.4453125 C53.709375,43.859375 54.225,43.5664062 54.3890625,43.5664062 C54.4828125,43.5664062 54.5296875,43.6835938 54.5296875,43.9179688 L54.5296875,43.9179688 L54.5296875,44.0585938 C54.5296875,45.3476562 55.2445312,46.1328125 56.6742187,46.4140625 C56.9554687,46.4609375 57.2484375,46.484375 57.553125,46.484375 C58.5375,46.484375 59.6625,46.2148438 60.928125,45.6757812 C61.6546875,45.3007812 62.0179687,44.9375 62.0179687,44.5859375 C61.9476562,44.09375 61.5257812,43.8476562 60.7523437,43.8476562 C60.4007812,43.8476562 60.0023437,43.9179688 59.5570312,44.0585938 C58.5960937,44.3867188 57.88125,44.5507812 57.4125,44.5507812 C56.9203125,44.5507812 56.6742187,44.3398438 56.6742187,43.9179688 C56.6742187,43.7070312 56.7445312,43.4140625 56.8851562,43.0390625 C57.0726562,42.546875 57.1664062,42.1367188 57.1664062,41.8085938 C57.1429687,41.1289062 56.803125,40.7890625 56.146875,40.7890625 C55.584375,40.7890625 54.7523437,41.0820312 53.6507812,41.6679688 C53.2289062,41.9023438 52.959375,42.0195312 52.8421875,42.0195312 C52.7484375,42.0195312 52.6898437,41.890625 52.6664062,41.6328125 C52.5257812,40.6015625 52.1273437,40.0859375 51.4710937,40.0859375 C50.6976562,40.0859375 49.3734375,40.8710938 47.4984375,42.4414062 C46.1859375,43.5898438 45.4007812,44.1640625 45.1429687,44.1640625 C45.0726562,44.1640625 45.0375,44.1171875 45.0375,44.0234375 C45.0375,43.7421875 45.3539062,43.0039062 45.9867187,41.8085938 C46.1507812,41.5039062 46.2328125,41.2109375 46.2328125,40.9296875 C46.2328125,40.6484375 46.1566406,40.4082031 46.0042969,40.2089844 C45.8519531,40.0097656 45.6351562,39.9101562 45.3539062,39.9101562 C44.9554687,39.9101562 44.5453125,40.2792969 44.1234375,41.0175781 C43.7015625,41.7558594 43.3734375,42.5703125 43.1390625,43.4609375 C42.9515625,44.140625 42.8578125,44.7617188 42.8578125,45.3242188 C42.8578125,45.8632812 42.9808594,46.2734375 43.2269531,46.5546875 C43.4730469,46.8359375 43.771875,46.9765625 44.1234375,46.9765625 Z M62.0484375,47.75 C63.1734375,47.75 64.321875,47.5039062 65.49375,47.0117188 C66.665625,46.5195312 67.6265625,45.875 68.3765625,45.078125 C68.68125,44.703125 68.8335937,44.375 68.8335937,44.09375 C68.7632812,43.5546875 68.4703125,43.2851562 67.9546875,43.2851562 C67.6265625,43.2851562 67.2632812,43.4492188 66.8648437,43.7773438 C66.1148437,44.4101562 65.30625,44.9082031 64.4390625,45.2714844 C63.571875,45.6347656 62.8101562,45.8164062 62.1539062,45.8164062 C61.8492187,45.8164062 61.5679687,45.7578125 61.3101562,45.640625 C61.0523437,45.5234375 60.9234375,45.3945312 60.9234375,45.2539062 C60.946875,45.0195312 61.1929687,44.9023438 61.6617187,44.9023438 L61.6617187,44.9023438 L61.9429687,44.9023438 C62.5992187,44.9023438 63.1851562,44.6914062 63.7007812,44.2695312 C64.2164062,43.8476562 64.5914062,43.3320312 64.8257812,42.7226562 C64.9664062,42.3710938 65.0367187,42.0195312 65.0367187,41.6679688 C65.0367187,41.1757812 64.8667969,40.7246094 64.5269531,40.3144531 C64.1871094,39.9042969 63.7828125,39.6992188 63.3140625,39.6992188 C62.7515625,39.6992188 62.165625,39.9570312 61.55625,40.4726562 C60.853125,41.0351562 60.2203125,41.890625 59.6578125,43.0390625 C59.1890625,43.9765625 58.9546875,44.7851562 58.9546875,45.4648438 C58.9546875,46.6835938 59.6929687,47.421875 61.1695312,47.6796875 C61.4507812,47.7265625 61.74375,47.75 62.0484375,47.75 Z M62.0835937,43.2148438 C61.9195312,43.2148438 61.8375,43.1328125 61.8375,42.96875 C61.8375,42.6875 61.9898437,42.3828125 62.2945312,42.0546875 C62.4820312,41.7734375 62.6578125,41.6328125 62.821875,41.6328125 C62.915625,41.6328125 62.9976562,41.6796875 63.0679687,41.7734375 C63.1382812,41.8671875 63.1734375,41.9609375 63.1734375,42.0546875 C63.1734375,42.2890625 63.0386719,42.5410156 62.7691406,42.8105469 C62.4996094,43.0800781 62.2710937,43.2148438 62.0835937,43.2148438 Z M65.6648437,53.3046875 C66.6023437,53.3046875 67.5046875,52.6367188 68.371875,51.3007812 C69.16875,50.0351562 69.5671875,48.7226562 69.5671875,47.3632812 L69.5671875,47.3632812 L69.5671875,47.2929688 C69.5671875,47.0820312 69.7898437,46.9179688 70.2351562,46.8007812 C71.3367187,46.3554688 72.215625,45.8691406 72.871875,45.3417969 C73.528125,44.8144531 73.85625,44.3398438 73.85625,43.9179688 C73.85625,43.7070312 73.7742187,43.53125 73.6101562,43.390625 C73.4460937,43.25 73.2703125,43.1796875 73.0828125,43.1796875 C72.7078125,43.1796875 71.9929687,43.4960938 70.9382812,44.1289062 L70.9382812,44.1289062 L70.5164062,44.375 C69.9539062,44.7265625 69.5671875,44.9023438 69.35625,44.9023438 C69.2390625,44.9023438 69.1453125,44.8378906 69.075,44.7089844 C69.0046875,44.5800781 68.9109375,44.375 68.79375,44.09375 L68.79375,44.09375 L68.6882812,43.7773438 C68.2898437,42.7929688 68.090625,42.0078125 68.090625,41.421875 C68.090625,40.6015625 68.4773437,40.109375 69.2507812,39.9453125 C69.8132812,39.7109375 70.0945312,39.40625 70.0945312,39.03125 C70.0945312,38.7734375 69.9949219,38.5449219 69.7957031,38.3457031 C69.5964844,38.1464844 69.309375,38.046875 68.934375,38.046875 L68.934375,38.046875 L68.8640625,38.046875 C67.6921875,38.1640625 66.8953125,38.75 66.4734375,39.8046875 C66.2625,40.3203125 66.1570312,40.90625 66.1570312,41.5625 C66.1570312,42.5 66.3796875,43.53125 66.825,44.65625 C67.059375,45.125 67.1765625,45.4648438 67.1765625,45.6757812 C67.1765625,45.8164062 67.1179687,45.9335938 67.0007812,46.0273438 C66.8835937,46.1210938 66.7078125,46.25 66.4734375,46.4140625 L66.4734375,46.4140625 L66.2625,46.5546875 C64.903125,47.5859375 64.059375,48.8046875 63.73125,50.2109375 C63.6609375,50.4921875 63.6257812,50.7617188 63.6257812,51.0195312 C63.6257812,51.9804688 64.059375,52.6835938 64.9265625,53.1289062 L64.9265625,53.1289062 L65.1023437,53.1992188 C65.2898437,53.2695312 65.4773437,53.3046875 65.6648437,53.3046875 Z M65.8054687,51.0898438 C65.7117187,51.0898438 65.6648437,51.0078125 65.6648437,50.84375 C65.6648437,50.5625 65.7878906,50.1933594 66.0339844,49.7363281 C66.2800781,49.2792969 66.5671875,48.8984375 66.8953125,48.59375 C67.0828125,48.4296875 67.2234375,48.3476562 67.3171875,48.3476562 C67.3875,48.3476562 67.4226562,48.40625 67.4226562,48.5234375 C67.4226562,48.8046875 67.1882812,49.3671875 66.7195312,50.2109375 C66.5554687,50.46875 66.3855469,50.6796875 66.2097656,50.84375 C66.0339844,51.0078125 65.8992187,51.0898438 65.8054687,51.0898438 Z" id="James"></path>
        </g>
    </g>
</svg>