<?xml version="1.0" encoding="UTF-8"?>
<svg width="46px" height="21px" viewBox="0 0 46 21" version="1.1" xmlns="http://www.w3.org/2000/svg" xmlns:xlink="http://www.w3.org/1999/xlink">
    <title>Group 5</title>
    <g id="Page-1" stroke="none" stroke-width="1" fill="none" fill-rule="evenodd">
        <g id="RF-Local-LP-Copy" transform="translate(-200.000000, -1831.000000)">
            <g id="RF-Logo-Light&amp;Dark-Blue(s)"></g>
            <g id="Group-5" transform="translate(200.000000, 1831.000000)">
                <path d="M18.7096608,1.94802538 C18.0891207,0.876652659 16.5659767,0 15.3248965,0 L7.67502829,0 C6.43394804,0 4.9108041,0.876652659 4.29026398,1.94802538 L0.465405093,8.55201211 C-0.155135031,9.62338483 -0.155135031,11.3766152 0.465405093,12.4479879 L4.29026398,19.0519746 C4.9108041,20.1234223 6.43394804,21 7.67502829,21 L15.3248965,21 C16.5659767,21 18.0891207,20.1234223 18.7096608,19.0519746 L22.5345949,12.4479879 C23.155135,11.3766152 23.155135,9.62338483 22.5345949,8.55201211 L18.7096608,1.94802538 Z" id="Fill-1" fill="#26ACE8"></path>
                <path d="M38.3248965,1 C39.2484418,1 40.3824336,1.65175482 40.8443239,2.44921605 L40.8443239,2.44921605 L44.6692638,9.05321273 C44.899704,9.45107158 45,9.97828838 45,10.5 C45,11.0217116 44.899704,11.5489284 44.669258,11.9467972 L44.669258,11.9467972 L40.8443145,18.5508003 C40.3824212,19.3483224 39.2484307,20 38.3248965,20 L38.3248965,20 L30.6750283,20 C29.7514941,20 28.6175036,19.3483224 28.1556051,18.5507913 L28.1556051,18.5507913 L24.3307362,11.9467873 C24.100296,11.5489284 24,11.0217116 24,10.5 C24,9.97828838 24.100296,9.45107158 24.3307462,9.0531954 L24.3307462,9.0531954 L28.1555951,2.449226 C28.6174912,1.65175482 29.751483,1 30.6750283,1 L30.6750283,1 Z" id="Fill-1" stroke="#26ACE8" stroke-width="2"></path>
            </g>
        </g>
        <g id="RF-Logo-Light&amp;Dark-Blue(s)"></g>
    </g>
</svg>