<?xml version="1.0" encoding="UTF-8"?>
<svg id="Layer_1" xmlns="http://www.w3.org/2000/svg" version="1.1" viewBox="0 0 686.47 186.91">
  <!-- Generator: Adobe Illustrator 29.5.1, SVG Export Plug-In . SVG Version: 2.1.0 Build 141)  -->
  <defs>
    <style>
      .st0 {
        fill: #26ace8;
      }

      .st1 {
        fill: #fff;
      }
    </style>
  </defs>
  <g>
    <path class="st1" d="M211.92,149.66c4.62-2.17,8.15-5.3,10.59-9.38,2.44-4.09,3.65-8.95,3.65-14.59s-1.2-10.55-3.6-14.73c-2.4-4.18-5.88-7.43-10.45-9.73-4.57-2.3-10.11-3.45-16.63-3.45h-33.44v85.76h17.56v-30.62h13.77l16.39,30.62h19.45l-18.26-33.46c.32-.14.65-.27.96-.41h.01ZM206.31,132.85c-1.15,1.94-2.88,3.4-5.18,4.37s-5.26,1.47-8.86,1.47h-12.66v-26.42h12.61c3.61,0,6.57.52,8.89,1.55,2.32,1.04,4.06,2.54,5.21,4.52,1.15,1.98,1.73,4.42,1.73,7.34s-.58,5.23-1.73,7.17h-.01Z"/>
    <path class="st1" d="M286.24,126.47c-2.76-2.71-5.97-4.73-9.61-6.07-3.65-1.34-7.58-2.01-11.8-2.01-6.25,0-11.7,1.4-16.35,4.2-4.64,2.8-8.23,6.7-10.76,11.68-2.53,4.99-3.8,10.8-3.8,17.44s1.28,12.66,3.83,17.61,6.21,8.77,10.96,11.45c4.76,2.69,10.42,4.03,16.98,4.03,5.03,0,9.47-.73,13.32-2.19s7.07-3.52,9.64-6.19,4.37-5.76,5.41-9.3l-15.66-2.94c-.61,1.65-1.51,3.04-2.68,4.17-1.17,1.13-2.58,1.99-4.23,2.56-1.65.58-3.49.86-5.53.86-2.99,0-5.61-.63-7.86-1.9-2.24-1.27-3.99-3.17-5.24-5.7-1.13-2.29-1.74-5.08-1.85-8.35h44.01v-4.83c0-5.53-.78-10.32-2.33-14.39s-3.71-7.45-6.48-10.16l.03.03ZM251.11,145.03c.2-2.18.7-4.17,1.52-5.96,1.07-2.36,2.66-4.23,4.75-5.61s4.63-2.07,7.63-2.07,5.44.68,7.45,2.04,3.53,3.28,4.55,5.76c.71,1.73,1.17,3.68,1.38,5.84h-27.28Z"/>
    <path class="st1" d="M336.41,152.57c-1.3,4.18-2.44,8.4-3.4,12.66-.37,1.65-.75,3.33-1.12,5.02-.39-1.69-.77-3.37-1.15-5.02-.98-4.26-2.12-8.48-3.42-12.66l-10.82-33.38h-18.36l23.71,64.35h19.63l23.77-64.35h-18.13l-10.71,33.38Z"/>
    <polygon class="st1" points="375.08 183.53 392.64 183.53 392.64 150.61 427.69 150.61 427.69 136.28 392.64 136.28 392.64 112.34 431.49 112.34 431.49 97.77 375.08 97.77 375.08 183.53"/>
    <path class="st1" d="M452.5,96.23c-2.61,0-4.83.86-6.68,2.59-1.84,1.73-2.76,3.82-2.76,6.27s.92,4.55,2.76,6.27c1.84,1.73,4.07,2.59,6.68,2.59s4.84-.86,6.71-2.59c1.86-1.73,2.79-3.82,2.79-6.27s-.93-4.55-2.79-6.27c-1.86-1.73-4.1-2.59-6.71-2.59Z"/>
    <rect class="st1" x="443.87" y="124.18" width="17.27" height="59.35"/>
    <path class="st1" d="M508.73,118.32c-3.61,0-6.8,1.02-9.58,3.05-2.78,2.03-4.77,5.05-5.96,9.04h-.69v-11.22h-16.69v64.35h17.27v-36.61c0-2.69.58-5.04,1.76-7.05,1.17-2.01,2.81-3.59,4.92-4.72,2.11-1.13,4.47-1.7,7.08-1.7,1.3,0,2.69.08,4.14.23,1.46.15,2.57.37,3.34.63v-15.43c-.77-.19-1.67-.34-2.71-.43-1.04-.1-2-.14-2.88-.14h0Z"/>
    <path class="st1" d="M607.53,120.8c-3.09-1.73-6.61-2.59-10.56-2.59-3.26,0-6.38.64-9.35,1.93s-5.55,3.26-7.71,5.93c-1.49,1.84-2.69,4.02-3.61,6.54-1.31-4.34-3.09-7.67-5.34-10-2.84-2.94-6.58-4.4-11.22-4.4-2.88,0-5.62.6-8.23,1.78-2.61,1.19-4.88,3.03-6.82,5.53-1.33,1.72-2.44,3.78-3.32,6.19l-.68-12.52h-16v64.35h17.27v-38.91c0-2.57.47-4.75,1.41-6.53s2.22-3.14,3.86-4.06c1.63-.92,3.46-1.38,5.5-1.38,2.95,0,5.36.93,7.22,2.79s2.79,4.37,2.79,7.51v40.58h16.69v-39.6c0-2.26.43-4.24,1.3-5.93.86-1.69,2.09-3,3.68-3.94,1.59-.94,3.46-1.41,5.61-1.41,2.88,0,5.3.88,7.25,2.65,1.96,1.77,2.94,4.47,2.94,8.12v40.12h17.33v-43.4c0-4.68-.89-8.64-2.68-11.89-1.78-3.24-4.22-5.73-7.31-7.45h-.02Z"/>
    <path class="st1" d="M682.68,130.21c-1.52-2.78-3.57-5.04-6.16-6.76-2.59-1.73-5.52-3-8.78-3.83s-6.62-1.24-10.07-1.24c-4.8,0-9.1.69-12.92,2.07s-7.01,3.38-9.58,5.99-4.41,5.79-5.53,9.55l15.83,2.59c.5-1.38,1.27-2.63,2.3-3.74,1.04-1.11,2.38-2,4.03-2.68,1.65-.67,3.59-1.01,5.81-1.01s3.98.34,5.5,1.01,2.66,1.64,3.42,2.91c.77,1.27,1.15,2.82,1.15,4.66v.29c0,1.38-.53,2.43-1.58,3.14-1.06.71-2.73,1.23-5.01,1.55-2.28.33-5.29.68-9.01,1.06-3.19.31-6.23.84-9.12,1.61-2.9.77-5.49,1.88-7.77,3.34-2.28,1.46-4.09,3.4-5.41,5.81-1.32,2.42-1.99,5.41-1.99,8.98,0,4.26.93,7.82,2.79,10.68s4.41,5.01,7.66,6.45c3.24,1.44,6.9,2.16,10.96,2.16,3.18,0,6-.44,8.43-1.32,2.44-.88,4.52-2.08,6.25-3.6s3.11-3.27,4.14-5.27h.58v8.92h16.35v-43.34c0-3.88-.76-7.2-2.27-9.99h0ZM667.8,160.51c0,2.26-.58,4.32-1.73,6.16-1.15,1.84-2.75,3.3-4.81,4.37-2.05,1.07-4.44,1.61-7.17,1.61-1.88,0-3.55-.29-5.01-.86-1.46-.58-2.61-1.43-3.45-2.56s-1.27-2.52-1.27-4.17c0-1.76.44-3.21,1.32-4.35.88-1.13,2.13-2.04,3.74-2.73s3.47-1.19,5.58-1.5c.96-.12,2.05-.27,3.28-.46,1.23-.19,2.48-.4,3.74-.63,1.27-.23,2.42-.5,3.45-.81,1.04-.31,1.8-.65,2.3-1.04v6.96h.03Z"/>
  </g>
  <path class="st0" d="M133,91.56l-15.19-8.77c-3.74-2.16-3.74-5.69,0-7.84l14.58-8.42c3.74-2.16,6.79-7.45,6.79-11.77v-26.59c0-4.31-3.06-9.61-6.79-11.77l-23.03-13.3c-3.74-2.16-9.85-2.16-13.59,0l-23.03,13.3c-3.74,2.16-6.79,7.45-6.79,11.77v16.14c0,4.31-3.06,6.08-6.79,3.92l-13.97-8.07c-3.74-2.16-9.85-2.16-13.59,0l-23.03,13.3c-3.74,2.16-6.79,7.45-6.79,11.77v26.59c0,4.31,3.06,9.61,6.79,11.77l23.03,13.3c3.74,2.16,9.85,2.16,13.59,0l14.58-8.42c3.74-2.16,6.79-.39,6.79,3.92v17.54c0,4.31,3.06,9.61,6.79,11.77l23.03,13.3c3.74,2.16,9.85,2.16,13.59,0l23.03-13.3c3.74-2.16,6.79-7.45,6.79-11.77v-26.59c0-4.31-3.06-9.61-6.79-11.77h0ZM105.39,83.59c0,1.67-1.18,3.72-2.63,4.56l-24.04,13.88c-1.45.84-3.81.84-5.26,0l-8.92-5.15c-1.45-.84-2.63-2.89-2.63-4.56v-27.76c0-1.67,1.18-3.72,2.63-4.56l8.92-5.15c1.45-.84,3.81-.84,5.26,0l24.04,13.88c1.45.84,2.63,2.89,2.63,4.56v10.3Z"/>
</svg>